<svg width="1170" height="2532" viewBox="0 0 1170 2532" fill="none" xmlns="http://www.w3.org/2000/svg">
<rect width="1170" height="2532" rx="65" fill="#FCF7F0"/>
<mask id="mask0_6937_10198" style="mask-type:alpha" maskUnits="userSpaceOnUse" x="0" y="0" width="1170" height="2532">
<rect width="1170" height="2532" rx="65" fill="#F4ECE0"/>
</mask>
<g mask="url(#mask0_6937_10198)">
<g opacity="0.7">
<path d="M-216.991 429.304C-141.387 457.992 -46.7792 419.24 -13.0465 345.728C-1.43104 320.4 3.76302 291.921 19.6681 269.085C80.0104 182.505 239.48 234.885 303.378 150.827C317.605 132.095 324.896 108.597 340.251 90.7776C390.433 32.6125 490.746 65.1225 556.128 24.89C603.021 -3.96592 620.491 -71.9808 593.29 -119.866C357.731 -124.601 126.141 -109.873 -106.713 -74.1005C-130.391 -70.4721 -156.185 -65.4912 -171.682 -47.1653C-183.255 -33.5245 -186.793 -14.9394 -189.641 2.73843C-210.775 133.727 -224.931 296.868 -216.985 429.353L-216.991 429.304Z" fill="#ECD1AB"/>
<path d="M70.9651 462.18C120.31 456.971 156.652 418.074 152.137 375.302C147.622 332.53 103.96 302.079 54.6145 307.288C5.26956 312.497 -31.0722 351.393 -26.5572 394.165C-22.0421 436.938 21.6201 467.388 70.9651 462.18Z" fill="#ECD1AB"/>
<path d="M307.901 208.418C322.026 230.572 308.419 264.475 277.534 284.145C246.65 303.815 210.195 301.805 196.069 279.652C181.944 257.499 195.551 223.595 226.436 203.925C257.32 184.255 293.775 186.265 307.901 208.418Z" fill="#ECD1AB"/>
<path d="M412.736 152.121C420.944 147.659 423.981 137.389 419.52 129.18C415.058 120.972 404.787 117.935 396.579 122.396C388.371 126.858 385.334 137.129 389.795 145.337C394.257 153.545 404.527 156.582 412.736 152.121Z" fill="#ECD1AB"/>
<path d="M85.8669 230.214L108.557 339.954L-35.123 408.023L-21.56 263.678L85.8669 230.214Z" fill="#EDC30D"/>
<path d="M85.8718 230.214L108.561 339.954L34.123 306.078L85.8718 230.214Z" fill="#DB4E19"/>
<path d="M34.1182 306.077L-21.56 263.677L-35.123 408.022L34.1182 306.077Z" fill="#84B693"/>
<path d="M-511 757.811C-420.939 427.481 121.013 698.014 313.082 420.225" stroke="#413669" stroke-width="1.44" stroke-miterlimit="10"/>
<path d="M581.427 165.633L580.317 365.814L303.986 431.38L381.277 184.234L581.427 165.633Z" fill="#EDC30D"/>
<path d="M581.43 165.633L580.321 365.814L462.816 278.954L581.43 165.633Z" fill="#DB4E19"/>
<path d="M462.813 278.954L381.277 184.234L303.986 431.38L462.813 278.954Z" fill="#DB4E19"/>
<path d="M294.571 442.66L289.089 474.35L257.59 452.579L294.571 442.66Z" fill="#DB4E19"/>
<path d="M108.715 545.936L84.0924 566.661L74.0469 529.68L108.715 545.936Z" fill="#EDC30D"/>
<path d="M251.444 488.136L227.012 517.861L213.195 485.918L251.444 488.136Z" fill="#EDC30D"/>
<path d="M191.202 515.23L166.77 544.955L152.953 513.012L191.202 515.23Z" fill="#DB4E19"/>
<path d="M26.833 550.626L2.36883 580.351L-11.416 548.408L26.833 550.626Z" fill="#DB4E19"/>
<path d="M381.278 184.233C329.086 182.047 259.623 299.678 197.321 256.136C197.321 256.136 184.107 279.301 194.659 299.202C205.212 319.103 254.077 324.649 295.558 268.273C340.811 206.733 360.902 186.103 381.278 184.233Z" fill="#84B693"/>
<path d="M580.32 365.815C552.307 465.826 390.533 478.914 379.251 544.163C379.251 544.163 353.139 539.504 357.956 502.238C362.805 464.971 412.113 439.461 489.467 422.666C566.789 405.902 580.32 365.783 580.32 365.783V365.815Z" fill="#84B693"/>
</g>
<path d="M125.352 1639.17C-364.368 894.533 -259.28 341.469 -145.522 158.017C-452.834 -228.471 -450.857 -59.0175 -411.454 74.0201C-643.965 294.889 -1100.28 874.976 -1065.46 1428.38C-1030.65 1981.78 -494.795 2291.77 -231.223 2377.59C91.6852 2441.72 615.071 2383.82 125.352 1639.17Z" fill="#CBE6E2"/>
<path d="M50.3949 1587.43C-439.325 842.79 -334.237 289.726 -220.479 106.274C-527.791 -280.214 -525.814 -110.761 -486.411 22.2769C-718.922 243.145 -1175.24 823.233 -1140.42 1376.64C-1105.6 1930.04 -569.752 2240.03 -306.18 2325.85C16.7282 2389.97 540.114 2332.07 50.3949 1587.43Z" fill="#E3F2F0"/>
<path d="M2017.65 60.379C1713.94 -914.041 1957.81 -1520.88 2153.52 -1751.02C2180.88 -1783.19 2191.26 -1828.09 2174.4 -1866.81C1989.2 -2292.25 1926.95 -2195.97 1915.34 -2054.31C1912.27 -2016.85 1892.47 -1982.48 1859.67 -1964.13C1489.64 -1757.15 808.719 -1240.33 667.65 -599.764C519.456 73.1483 1053.16 627.154 1338.53 820.043C1702.22 1007.37 2347.19 1117.71 2017.65 60.379Z" fill="#EEB7B5"/>
<path d="M1987.1 -16.0282C1683.39 -990.448 1927.27 -1597.28 2122.98 -1827.43C2150.33 -1859.59 2160.71 -1904.5 2143.86 -1943.22C1958.66 -2368.66 1896.41 -2272.38 1884.79 -2130.72C1881.72 -2093.26 1861.93 -2058.89 1829.12 -2040.54C1459.09 -1833.56 778.174 -1316.73 637.105 -676.171C488.911 -3.25871 1022.61 550.747 1307.99 743.635C1671.67 930.967 2316.65 1041.3 1987.1 -16.0282Z" fill="#F2CAC9"/>
</g>
<g opacity="0.7">
<path d="M468.051 2661.5C401.078 2627.81 351.443 2561.51 338.019 2487.69C333.12 2460.85 333.12 2431.8 346.108 2407.83C372.549 2359.06 437.957 2351.11 493.39 2349.05C548.824 2346.99 614.202 2339.09 640.73 2290.35C668.94 2238.49 634.787 2171.06 656.473 2116.16C668.882 2084.71 698.193 2062.51 729.534 2049.92C783.055 2028.44 845.852 2031.52 897.024 2058.13C921.552 2070.9 951.037 2071.01 978.551 2073.59C1006.09 2076.18 1035.12 2072 1058.11 2056.59C1072.46 2046.96 1083.85 2033.41 1098.41 2024.09C1139.84 1997.57 1194.08 2011.41 1241.02 2026.07C1216.12 2244.12 1280.54 2465.95 1268.3 2685.09C1004.88 2685.03 703.441 2779.8 468.051 2661.44V2661.5Z" fill="#ECD1AB"/>
<path d="M963.359 2037.12C1015.05 2037.12 1056.95 2010.4 1056.95 1977.43C1056.95 1944.47 1015.05 1917.75 963.359 1917.75C911.672 1917.75 869.771 1944.47 869.771 1977.43C869.771 2010.4 911.672 2037.12 963.359 2037.12Z" fill="#ECD1AB"/>
<path d="M597.412 2250.57C604.978 2218.49 585.125 2186.35 553.069 2178.77C521.012 2171.2 488.892 2191.07 481.326 2223.15C473.76 2255.24 493.614 2287.38 525.67 2294.95C557.726 2302.53 589.846 2282.66 597.412 2250.57Z" fill="#ECD1AB"/>
<path d="M814.435 1963.01C811.702 1960.58 807.399 1962.09 806.74 1965.73C803.24 1984.7 794.482 2031.17 789.676 2048.73C787.537 2056.58 783.923 2075.73 782.298 2084.54C781.825 2087.08 783.459 2089.53 785.965 2090.02L973.837 2128.09C978.379 2129.01 981.373 2123.42 978.125 2120.09C956.912 2098.5 910.306 2051.22 890.884 2032.53C875.018 2017.28 830.82 1977.63 814.441 1962.98L814.435 1963.01ZM818.89 2065.6L827.322 2024.17C828.066 2020.5 832.49 2019.09 835.151 2021.65L892.026 2076.33C895.424 2079.61 892.443 2085.37 887.859 2084.44L822.533 2071.2C819.996 2070.7 818.374 2068.2 818.902 2065.62L818.89 2065.6Z" fill="#84B693"/>
<path d="M800.648 2079.31L798.273 2090.95C797.589 2094.31 802.76 2095.38 803.431 2092L805.806 2080.36C806.49 2076.99 801.319 2075.92 800.648 2079.31Z" fill="white"/>
<path d="M829.992 2085.25L827.617 2096.89C826.933 2100.26 832.103 2101.33 832.775 2097.94C833.561 2094.07 834.364 2090.18 835.15 2086.3C835.834 2082.94 830.663 2081.87 829.992 2085.25Z" fill="white"/>
<path d="M859.318 2091.2L856.943 2102.85C856.259 2106.21 861.43 2107.28 862.101 2103.9L864.476 2092.26C865.16 2088.89 859.989 2087.82 859.318 2091.2Z" fill="white"/>
<path d="M888.662 2097.15L886.287 2108.79C885.603 2112.16 890.773 2113.22 891.445 2109.84L893.82 2098.2C894.504 2094.83 889.333 2093.77 888.662 2097.15Z" fill="white"/>
<path d="M918.005 2103.09L915.63 2114.73C914.947 2118.1 920.117 2119.17 920.789 2115.79C921.574 2111.91 922.378 2108.02 923.164 2104.14C923.847 2100.78 918.677 2099.71 918.005 2103.09Z" fill="white"/>
<path d="M947.318 2109.03C946.532 2112.91 945.728 2116.79 944.943 2120.67C944.259 2124.04 949.43 2125.11 950.101 2121.72C950.887 2117.85 951.691 2113.96 952.476 2110.08C953.16 2106.72 947.989 2105.65 947.318 2109.03Z" fill="white"/>
<path d="M1064.95 2001.08C1074.23 2028.94 1081.36 2057.46 1086.29 2086.39C1086.58 2088.04 1089.1 2087.35 1088.81 2085.69C1083.88 2056.76 1076.72 2028.24 1067.47 2000.39C1066.95 1998.79 1064.43 1999.49 1064.95 2001.08Z" fill="#3F2C32"/>
<path d="M1088.93 2086.16C1092.41 2055.89 1092.52 2025.28 1089.25 1994.99C1089.07 1993.33 1086.46 1993.31 1086.64 1994.99C1089.91 2025.28 1089.8 2055.87 1086.32 2086.16C1086.11 2087.84 1088.75 2087.81 1088.93 2086.16Z" fill="#3F2C32"/>
<path d="M1173.56 2084.1C1168.19 2061.06 1164.8 2037.56 1163.5 2013.94C1163.12 2007.26 1162.92 2000.59 1162.89 1993.91C1162.89 1992.23 1160.25 1992.23 1160.28 1993.91C1160.45 2017.68 1162.65 2041.44 1166.89 2064.83C1168.11 2071.5 1169.5 2078.18 1171.03 2084.79C1171.41 2086.45 1173.93 2085.75 1173.56 2084.1Z" fill="#3F2C32"/>
<path d="M1104.32 1995.34C1110.47 2024.93 1116.61 2054.53 1122.76 2084.13C1123.11 2085.78 1125.63 2085.08 1125.28 2083.43C1119.14 2053.83 1112.99 2024.24 1106.84 1994.64C1106.5 1992.99 1103.97 1993.68 1104.32 1995.34Z" fill="#3F2C32"/>
<path d="M1139 1994.03C1133.89 2023.83 1128.82 2053.63 1123.72 2083.4C1123.43 2085.06 1125.95 2085.75 1126.24 2084.1C1131.34 2054.3 1136.42 2024.5 1141.52 1994.73C1141.81 1993.07 1139.29 1992.38 1139 1994.03Z" fill="#3F2C32"/>
<path d="M1290.74 1792.02C1273.84 1911.25 1172.14 1989.97 1172.14 1989.97L1076.29 1991.68C1076.29 1991.68 1043.32 1968 1010.68 1926.22C985.221 1893.63 959.968 1850.05 950.691 1798.11C931.324 1689.36 993.716 1594.24 1117.11 1592.04C1150.42 1591.46 1179.5 1597.75 1203.94 1609.48C1270.1 1641.13 1302.08 1712.16 1290.74 1792.02Z" fill="#DB4E19"/>
<path d="M1117.11 1592.04C1029 1593.6 984.932 1688.4 999.341 1797.21C1015.05 1915.89 1090 1991.45 1090 1991.45L1124.21 1990.84L1158.42 1990.23C1158.42 1990.23 1230.64 1912.06 1242.12 1792.89C1252.65 1683.61 1205.25 1590.47 1117.11 1592.04Z" fill="white"/>
<path d="M1117.11 1592.04C1076.81 1592.76 1057.56 1687.09 1065.18 1796.02C1073.53 1914.82 1108.56 1991.1 1108.56 1991.1L1124.21 1990.81L1139.87 1990.52C1139.87 1990.52 1172.16 1913.05 1176.25 1794.02C1180.02 1684.92 1157.44 1591.31 1117.11 1592.04Z" fill="#DB4E19"/>
<g style="mix-blend-mode:multiply" opacity="0.24">
<path d="M1290.74 1792.02C1273.84 1911.25 1172.14 1989.97 1172.14 1989.97L1076.29 1991.68C1076.29 1991.68 1043.32 1968 1010.68 1926.22C1057.85 1935.45 1108.44 1927.18 1149.9 1902.69C1198.58 1873.9 1233.77 1823.27 1243.78 1767.59C1253.69 1712.43 1238.76 1653.32 1203.91 1609.5C1270.07 1641.16 1302.05 1712.19 1290.71 1792.05L1290.74 1792.02Z" fill="#3F4068"/>
</g>
<path d="M1179.12 1984.08C1142.74 1982.6 1106.32 1983.29 1070.03 1986.17C1057.67 1987.15 1057.88 2004.51 1070.34 2003.55C1106.64 2000.68 1143.06 1999.98 1179.44 2001.46C1191.91 2001.98 1191.56 1984.6 1179.12 1984.08Z" fill="#EDC30D"/>
<g style="mix-blend-mode:soft-light" opacity="0.5">
<path d="M1092.03 1730.24C1109.58 1683.34 1100.13 1636.44 1070.92 1625.5C1041.71 1614.55 1003.8 1643.69 986.252 1690.59C968.704 1737.49 978.158 1784.38 1007.37 1795.33C1036.58 1806.28 1074.49 1777.13 1092.03 1730.24Z" fill="white"/>
</g>
<path d="M1190.66 2137.87C1190.78 2142.65 1190.75 2147.3 1190.55 2151.62C1190.55 2151.97 1190.55 2152.29 1190.49 2152.63C1190.49 2153.19 1190.43 2153.71 1190.4 2154.23C1190.37 2154.64 1190.34 2155.04 1190.34 2155.45C1190.05 2159.22 1189.62 2162.67 1189.01 2165.69C1188.95 2166.01 1188.89 2166.33 1188.81 2166.62C1188.05 2170.02 1187.07 2172.8 1185.79 2174.69C1185.04 2175.82 1183.7 2176.89 1181.82 2177.94C1181.44 2178.17 1181.01 2178.37 1180.57 2178.58C1175.47 2181.07 1167.44 2183.16 1157.96 2184.67C1157.32 2184.79 1156.65 2184.87 1155.99 2184.96C1151.58 2185.63 1146.88 2186.12 1142.04 2186.47C1141.26 2186.53 1140.48 2186.58 1139.69 2186.64C1138.74 2186.7 1137.75 2186.76 1136.76 2186.82C1133.58 2186.99 1130.36 2187.08 1127.11 2187.08C1126.41 2187.08 1125.69 2187.08 1124.99 2187.08C1118.91 2187.08 1112.87 2186.79 1107.13 2186.21C1106.47 2186.12 1105.83 2186.06 1105.16 2185.97C1100.03 2185.39 1095.13 2184.52 1090.72 2183.39C1089.71 2183.16 1088.75 2182.87 1087.8 2182.58C1085.51 2181.88 1083.39 2181.1 1081.45 2180.26C1081.01 2180.06 1080.61 2179.85 1080.2 2179.68C1076.87 2178.05 1074.17 2176.17 1072.26 2173.93C1071.18 2172.69 1070.23 2171.23 1069.41 2169.61C1069.04 2168.88 1068.69 2168.1 1068.37 2167.29C1067.1 2164.18 1066.14 2160.56 1065.5 2156.64C1065.44 2156.35 1065.38 2156.06 1065.33 2155.74C1064.83 2152.46 1064.49 2149.01 1064.31 2145.41C1064.31 2144.97 1064.25 2144.51 1064.25 2144.05C1064.25 2143.58 1064.2 2143.12 1064.2 2142.65C1064.2 2142.33 1064.17 2142.04 1064.17 2141.72C1064.05 2137.14 1064.17 2132.5 1064.37 2127.91C1064.37 2127.59 1064.37 2127.27 1064.43 2126.96C1064.43 2126.2 1064.49 2125.45 1064.54 2124.69C1064.54 2124.26 1064.57 2123.82 1064.6 2123.39C1064.86 2119.53 1065.21 2115.81 1065.59 2112.33C1065.62 2111.98 1065.67 2111.63 1065.7 2111.32C1065.96 2108.88 1066.25 2106.59 1066.54 2104.44C1066.6 2104 1066.69 2103.54 1066.72 2103.1C1067.73 2095.7 1068.66 2090.86 1068.66 2090.86C1070.14 2090.63 1071.68 2090.42 1073.33 2090.22C1073.68 2090.19 1074 2090.13 1074.34 2090.1C1078.66 2089.58 1083.45 2089.15 1088.58 2088.8C1088.87 2088.8 1089.13 2088.74 1089.45 2088.74C1089.83 2088.74 1090.2 2088.68 1090.55 2088.65C1096.09 2088.28 1101.97 2087.99 1107.97 2087.75C1108.41 2087.75 1108.84 2087.73 1109.25 2087.73H1109.31C1109.86 2087.7 1110.41 2087.7 1110.99 2087.67C1117.08 2087.46 1123.31 2087.29 1129.37 2087.2H1130.85C1132.18 2087.14 1133.49 2087.12 1134.82 2087.12H1136.3C1142.48 2087 1148.42 2086.97 1153.9 2086.97C1154.51 2086.97 1155.09 2086.97 1155.7 2086.97C1156.16 2086.97 1156.62 2086.97 1157.09 2086.97C1157.52 2086.97 1157.96 2086.97 1158.39 2086.97C1165.79 2086.97 1172.14 2087.03 1176.66 2087.09C1177.06 2087.09 1177.47 2087.09 1177.88 2087.09C1181.96 2087.12 1184.28 2087.17 1184.28 2087.17C1185.07 2089.99 1185.88 2093.41 1186.57 2097.24C1186.66 2097.62 1186.72 2098.03 1186.81 2098.46C1187.18 2100.49 1187.5 2102.64 1187.85 2104.87C1187.91 2105.22 1187.97 2105.6 1187.99 2105.98C1188.43 2109.14 1188.86 2112.45 1189.21 2115.84C1189.27 2116.25 1189.3 2116.65 1189.33 2117.09C1189.47 2118.48 1189.62 2119.9 1189.73 2121.33C1189.73 2121.67 1189.79 2121.99 1189.82 2122.34C1190.17 2126.49 1190.43 2130.67 1190.6 2134.82C1190.6 2135.23 1190.6 2135.63 1190.63 2136.04V2136.82C1190.63 2137.17 1190.63 2137.52 1190.69 2137.89L1190.66 2137.87Z" fill="#EDC30D"/>
<g style="mix-blend-mode:multiply">
<path d="M1189.21 2137.29C1189.62 2137.46 1189.99 2137.6 1190.37 2137.75L1190.66 2137.87C1190.66 2137.52 1190.63 2137.17 1190.63 2136.79C1190.43 2136.73 1190.23 2136.65 1190.02 2136.59C1190.23 2136.39 1190.43 2136.24 1190.6 2136.04C1190.6 2135.6 1190.57 2135.2 1190.57 2134.79C1190.05 2135.25 1189.56 2135.75 1189.04 2136.21C1184.31 2134.41 1179.64 2132.5 1175.03 2130.44C1178.74 2127.3 1182.37 2124.05 1185.82 2120.63C1187.15 2121.21 1188.46 2121.76 1189.79 2122.34C1189.79 2121.99 1189.73 2121.65 1189.7 2121.33C1188.63 2120.89 1187.56 2120.43 1186.49 2119.96C1187.44 2119.01 1188.37 2118.08 1189.27 2117.09C1189.27 2116.65 1189.21 2116.25 1189.15 2115.84C1187.99 2117.12 1186.78 2118.34 1185.56 2119.59C1181.12 2117.64 1176.8 2115.58 1172.48 2113.4C1175.93 2110.21 1179.3 2106.91 1182.46 2103.42C1184.25 2104.29 1186.08 2105.16 1187.91 2106.01C1187.85 2105.63 1187.79 2105.25 1187.76 2104.9C1186.2 2104.18 1184.66 2103.42 1183.09 2102.67C1184.31 2101.31 1185.53 2099.91 1186.72 2098.49C1186.63 2098.08 1186.57 2097.68 1186.49 2097.27C1185.12 2098.95 1183.7 2100.61 1182.25 2102.23C1180.31 2101.28 1178.34 2100.32 1176.43 2099.27C1174.25 2098.14 1172.13 2096.92 1169.99 2095.73C1172.71 2092.98 1175.32 2090.08 1177.79 2087.12C1177.41 2087.12 1176.98 2087.12 1176.57 2087.12C1174.19 2089.93 1171.7 2092.66 1169.12 2095.3C1165.09 2093.01 1161.12 2090.6 1157.2 2088.07C1157.58 2087.73 1157.93 2087.38 1158.28 2087C1157.84 2087 1157.41 2087 1156.97 2087C1156.8 2087.2 1156.59 2087.35 1156.39 2087.55C1156.1 2087.38 1155.84 2087.2 1155.55 2087C1154.94 2087 1154.39 2087 1153.75 2087C1154.36 2087.41 1155 2087.84 1155.61 2088.22C1152.71 2090.95 1149.75 2093.56 1146.71 2096.08C1146.13 2096.55 1145.55 2097.01 1144.97 2097.45C1141.66 2095.24 1138.39 2093.01 1135.2 2090.63C1134.59 2090.16 1133.98 2089.73 1133.4 2089.26C1134.13 2088.68 1134.88 2088.13 1135.63 2087.55C1135.81 2087.41 1135.98 2087.26 1136.15 2087.12H1134.68C1134.01 2087.67 1133.34 2088.16 1132.65 2088.71C1131.98 2088.22 1131.34 2087.7 1130.7 2087.2H1129.23C1129.75 2087.64 1130.27 2088.07 1130.79 2088.48C1131.14 2088.74 1131.54 2089.03 1131.89 2089.29C1128.15 2092.19 1124.35 2094.98 1120.47 2097.65C1116.79 2094.72 1113.22 2091.64 1109.8 2088.42C1110.15 2088.19 1110.5 2087.96 1110.84 2087.7C1110.29 2087.7 1109.74 2087.73 1109.16 2087.75C1109.16 2087.75 1109.16 2087.75 1109.13 2087.75C1108.7 2087.75 1108.26 2087.75 1107.86 2087.75L1108.38 2088.25C1104.58 2090.8 1100.7 2093.27 1096.75 2095.59C1095.04 2093.82 1093.36 2092.05 1091.77 2090.19C1091.3 2089.67 1090.87 2089.18 1090.46 2088.65C1090.09 2088.65 1089.71 2088.71 1089.36 2088.74C1091.48 2091.27 1093.68 2093.7 1095.94 2096.05C1092 2098.37 1087.97 2100.55 1083.94 2102.67C1083.77 2102.49 1083.59 2102.29 1083.42 2102.09C1080.11 2098.32 1077.04 2094.31 1074.28 2090.1C1073.94 2090.1 1073.59 2090.16 1073.27 2090.22C1076.23 2094.75 1079.56 2099.04 1083.13 2103.13C1079.13 2105.16 1075.07 2107.14 1070.98 2109.02C1069.5 2107.11 1068.05 2105.14 1066.69 2103.13C1066.63 2103.57 1066.57 2104 1066.51 2104.47C1067.67 2106.15 1068.89 2107.78 1070.14 2109.4C1068.66 2110.07 1067.18 2110.71 1065.7 2111.34C1065.67 2111.69 1065.62 2112.01 1065.59 2112.36C1067.3 2111.63 1069.01 2110.88 1070.69 2110.13C1073.56 2113.75 1076.63 2117.24 1079.91 2120.54C1077.13 2121.79 1074.34 2123.01 1071.53 2124.17C1069.96 2124.81 1068.4 2125.45 1066.86 2126.03C1066.83 2125.97 1066.78 2125.94 1066.75 2125.91C1066.02 2125.1 1065.33 2124.26 1064.63 2123.42C1064.6 2123.85 1064.57 2124.29 1064.57 2124.72C1065.04 2125.3 1065.5 2125.85 1065.99 2126.4C1065.47 2126.61 1064.98 2126.78 1064.46 2126.98C1064.43 2127.3 1064.4 2127.62 1064.4 2127.94C1065.15 2127.68 1065.88 2127.39 1066.63 2127.13C1069.76 2130.67 1073.1 2134.06 1076.58 2137.26C1072.49 2138.85 1068.37 2140.36 1064.2 2141.75C1064.2 2142.07 1064.22 2142.36 1064.22 2142.68C1068.63 2141.23 1072.98 2139.66 1077.3 2137.95C1080.98 2141.32 1084.78 2144.51 1088.67 2147.53C1083.79 2149.5 1078.89 2151.33 1073.94 2153.01C1070.6 2150.17 1067.36 2147.18 1064.31 2144.05C1064.31 2144.48 1064.34 2144.95 1064.37 2145.41C1067.09 2148.17 1069.96 2150.81 1072.92 2153.33C1070.43 2154.17 1067.91 2154.99 1065.38 2155.74C1065.44 2156.06 1065.5 2156.32 1065.56 2156.64C1068.28 2155.8 1071.01 2154.93 1073.7 2154.03C1076.02 2156 1078.37 2157.92 1080.78 2159.74C1082.43 2161.02 1084.14 2162.24 1085.85 2163.52C1080.61 2165.37 1075.33 2167.03 1069.99 2168.57C1069.47 2168.16 1068.95 2167.72 1068.46 2167.29C1068.78 2168.1 1069.12 2168.88 1069.5 2169.61C1069.59 2169.61 1069.67 2169.55 1069.79 2169.52C1070.69 2170.22 1071.56 2170.92 1072.43 2171.61C1075.76 2174.17 1079.16 2176.6 1082.58 2178.98C1081.82 2179.21 1081.07 2179.45 1080.29 2179.65C1080.69 2179.85 1081.1 2180.06 1081.53 2180.23L1083.53 2179.65C1084.98 2180.64 1086.4 2181.62 1087.88 2182.58C1088.84 2182.87 1089.8 2183.13 1090.81 2183.39C1088.72 2182.09 1086.66 2180.72 1084.61 2179.36C1090.11 2177.65 1095.51 2175.76 1100.87 2173.7C1105.6 2176.66 1110.41 2179.45 1115.28 2182.12C1111.95 2183.48 1108.58 2184.76 1105.22 2185.98C1105.89 2186.06 1106.52 2186.12 1107.19 2186.21C1110.26 2185.08 1113.28 2183.89 1116.32 2182.64C1119.19 2184.18 1122.12 2185.66 1125.05 2187.08C1125.75 2187.08 1126.47 2187.08 1127.17 2187.08C1124.04 2185.6 1120.93 2184.06 1117.86 2182.44C1117.72 2182.35 1117.57 2182.26 1117.4 2182.17C1122.7 2179.97 1127.92 2177.56 1133.05 2175.04C1138.18 2177.53 1143.4 2179.91 1148.68 2182.09C1145.72 2183.65 1142.74 2185.19 1139.75 2186.67C1140.56 2186.61 1141.34 2186.56 1142.1 2186.5C1144.68 2185.22 1147.23 2183.89 1149.78 2182.52C1151.87 2183.36 1153.96 2184.21 1156.04 2184.99C1156.71 2184.9 1157.35 2184.81 1158.02 2184.7C1155.61 2183.8 1153.23 2182.9 1150.83 2181.94C1152.62 2180.96 1154.42 2180 1156.22 2178.95C1159.29 2177.18 1162.31 2175.36 1165.32 2173.44C1170.37 2175.33 1175.47 2177.07 1180.63 2178.6C1181.06 2178.4 1181.47 2178.2 1181.88 2177.97C1176.66 2176.4 1171.47 2174.66 1166.34 2172.8C1170.89 2169.9 1175.32 2166.88 1179.67 2163.72C1182.72 2164.76 1185.76 2165.75 1188.83 2166.68C1188.89 2166.39 1188.95 2166.07 1189.04 2165.75C1186.22 2164.91 1183.41 2164.01 1180.63 2163.05C1183.27 2161.08 1185.91 2159.08 1188.46 2157.02C1189.1 2156.52 1189.73 2156 1190.34 2155.48C1190.34 2155.07 1190.37 2154.67 1190.4 2154.26C1186.83 2157.16 1183.21 2159.95 1179.53 2162.67C1174.37 2160.88 1169.29 2158.9 1164.28 2156.81C1168.57 2153.88 1172.74 2150.81 1176.83 2147.64C1178.54 2148.34 1180.28 2149.04 1182.02 2149.7C1184.83 2150.75 1187.65 2151.74 1190.52 2152.69C1190.54 2152.34 1190.57 2152.03 1190.57 2151.68C1186.22 2150.26 1181.93 2148.69 1177.67 2147.03C1178.34 2146.51 1179.03 2146.02 1179.7 2145.5C1182.98 2142.89 1186.17 2140.19 1189.24 2137.37L1189.21 2137.29ZM1184.92 2120.22C1181.44 2123.65 1177.82 2126.9 1174.11 2130C1169.53 2127.94 1165 2125.77 1160.57 2123.44C1161.06 2123.04 1161.58 2122.66 1162.1 2122.25C1165.38 2119.61 1168.63 2116.89 1171.76 2114.04C1176.08 2116.25 1180.48 2118.25 1184.92 2120.19V2120.22ZM1158.88 2123.59C1154.97 2126.67 1150.94 2129.6 1146.85 2132.41C1142.45 2129.97 1138.1 2127.42 1133.81 2124.75C1137.92 2122.05 1141.98 2119.27 1145.95 2116.31C1150.19 2118.89 1154.51 2121.27 1158.86 2123.59H1158.88ZM1146.82 2115.7C1149 2114.04 1151.2 2112.42 1153.32 2110.71C1154.94 2109.4 1156.59 2108.07 1158.19 2106.7C1162.36 2109.14 1166.6 2111.46 1170.89 2113.64C1168.77 2115.55 1166.6 2117.41 1164.42 2119.24C1162.86 2120.51 1161.26 2121.76 1159.67 2123.01C1155.32 2120.72 1151.03 2118.25 1146.82 2115.73V2115.7ZM1120.12 2133.17C1120.44 2132.99 1120.76 2132.82 1121.08 2132.64C1125.11 2130.32 1129.05 2127.86 1132.97 2125.33C1137.23 2128.03 1141.52 2130.61 1145.93 2133.05C1141.72 2135.92 1137.46 2138.68 1133.11 2141.29C1128.7 2138.74 1124.38 2136.01 1120.12 2133.17ZM1132.18 2141.84C1127.66 2144.48 1123.08 2147.01 1118.44 2149.39C1114.09 2146.66 1109.83 2143.81 1105.65 2140.85C1110.24 2138.59 1114.76 2136.21 1119.19 2133.72C1123.43 2136.56 1127.75 2139.29 1132.18 2141.87V2141.84ZM1133.02 2124.26C1128.88 2121.62 1124.79 2118.83 1120.79 2115.96C1124.91 2113.38 1128.91 2110.65 1132.88 2107.83C1136.88 2110.62 1140.97 2113.29 1145.11 2115.81C1141.17 2118.74 1137.14 2121.56 1133.02 2124.26ZM1132.18 2124.84C1127.95 2127.56 1123.63 2130.12 1119.25 2132.61C1116.21 2130.55 1113.19 2128.46 1110.24 2126.29C1109.19 2125.53 1108.15 2124.75 1107.13 2123.97C1108.84 2123.01 1110.61 2122.08 1112.32 2121.09C1114.87 2119.61 1117.45 2118.08 1119.98 2116.51C1123.98 2119.41 1128.07 2122.2 1132.21 2124.87L1132.18 2124.84ZM1106.38 2123.36C1102.55 2120.4 1098.84 2117.32 1095.25 2114.07C1098.03 2112.62 1100.78 2111.08 1103.51 2109.52C1104.9 2108.7 1106.29 2107.83 1107.68 2106.99C1109.83 2108.79 1112 2110.56 1114.18 2112.22C1115.8 2113.49 1117.48 2114.68 1119.14 2115.9C1114.93 2118.51 1110.7 2121.04 1106.35 2123.39L1106.38 2123.36ZM1105.48 2123.82C1101.1 2126.2 1096.64 2128.41 1092.12 2130.52C1088.43 2127.45 1084.87 2124.2 1081.47 2120.8C1085.82 2118.83 1090.14 2116.74 1094.38 2114.51C1097.97 2117.79 1101.68 2120.89 1105.48 2123.82ZM1106.23 2124.43C1110.18 2127.45 1114.24 2130.35 1118.38 2133.11C1113.92 2135.63 1109.39 2138.01 1104.81 2140.25C1103.83 2139.55 1102.84 2138.88 1101.89 2138.16C1098.84 2135.92 1095.86 2133.6 1092.93 2131.16C1097.42 2129.04 1101.89 2126.78 1106.23 2124.43ZM1117.51 2149.88C1112.76 2152.32 1107.92 2154.55 1103.02 2156.7C1099.8 2154.55 1096.61 2152.35 1093.51 2150.05C1092.46 2149.3 1091.45 2148.51 1090.4 2147.73C1095.22 2145.73 1100 2143.61 1104.67 2141.32C1108.84 2144.31 1113.13 2147.15 1117.48 2149.85L1117.51 2149.88ZM1118.41 2150.43C1122.91 2153.22 1127.49 2155.88 1132.15 2158.41C1127.37 2160.99 1122.47 2163.43 1117.51 2165.72C1112.93 2163.05 1108.41 2160.24 1103.97 2157.31C1108.84 2155.16 1113.66 2152.87 1118.41 2150.43ZM1119.4 2149.94C1122.93 2148.11 1126.44 2146.22 1129.89 2144.25C1130.97 2143.64 1131.98 2142.97 1133.05 2142.36C1137.58 2144.97 1142.13 2147.5 1146.8 2149.85C1142.33 2152.66 1137.78 2155.36 1133.14 2157.89C1128.47 2155.39 1123.86 2152.75 1119.37 2149.97L1119.4 2149.94ZM1138.68 2155.83C1141.72 2154.06 1144.77 2152.2 1147.78 2150.31C1152.56 2152.69 1157.44 2154.93 1162.36 2157.02C1157.93 2160.01 1153.41 2162.88 1148.8 2165.58C1144.04 2163.4 1139.31 2161.14 1134.68 2158.7C1134.47 2158.61 1134.27 2158.5 1134.07 2158.38C1135.6 2157.54 1137.17 2156.7 1138.71 2155.83H1138.68ZM1143.03 2146.83C1139.95 2145.21 1136.97 2143.52 1133.98 2141.78C1138.36 2139.17 1142.68 2136.44 1146.88 2133.57C1151.38 2136.04 1155.96 2138.36 1160.6 2140.56C1156.42 2143.58 1152.19 2146.48 1147.81 2149.24C1146.22 2148.43 1144.62 2147.64 1143.03 2146.83ZM1151.4 2134.96C1150.19 2134.33 1148.97 2133.63 1147.78 2132.96C1151.87 2130.12 1155.9 2127.19 1159.81 2124.11C1164.28 2126.43 1168.77 2128.67 1173.35 2130.76C1173.32 2130.79 1173.27 2130.81 1173.27 2130.84C1169.44 2134.04 1165.47 2137.02 1161.44 2139.98C1158.04 2138.39 1154.71 2136.73 1151.4 2134.99V2134.96ZM1169.38 2096.46C1173.41 2098.75 1177.53 2100.93 1181.67 2102.99C1178.48 2106.47 1175.15 2109.78 1171.67 2112.97C1170.51 2112.39 1169.29 2111.81 1168.13 2111.2C1165.03 2109.57 1161.99 2107.86 1158.97 2106.12C1162.57 2103.05 1166.05 2099.83 1169.38 2096.49V2096.46ZM1156.59 2088.77C1160.51 2091.29 1164.51 2093.7 1168.57 2096C1165.23 2099.36 1161.73 2102.55 1158.16 2105.6C1154.01 2103.19 1149.98 2100.67 1146.01 2098.03C1149.64 2095.07 1153.2 2091.99 1156.62 2088.77H1156.59ZM1145.2 2098.66C1149.2 2101.31 1153.26 2103.86 1157.38 2106.24C1156.8 2106.73 1156.25 2107.2 1155.67 2107.69C1152.54 2110.3 1149.29 2112.8 1146.01 2115.23C1141.87 2112.71 1137.75 2110.07 1133.75 2107.31C1137.43 2104.67 1141.05 2101.97 1144.59 2099.16C1144.82 2098.98 1145.03 2098.81 1145.23 2098.64L1145.2 2098.66ZM1132.85 2089.9C1136.62 2092.75 1140.47 2095.47 1144.42 2098.11C1140.71 2101.13 1136.88 2104.03 1132.99 2106.79C1130.99 2105.4 1128.99 2104 1127.05 2102.58C1125.14 2101.19 1123.28 2099.74 1121.43 2098.29C1125.31 2095.59 1129.14 2092.77 1132.88 2089.9H1132.85ZM1122.62 2100.41C1125.75 2102.81 1128.96 2105.11 1132.18 2107.4C1128.21 2110.21 1124.15 2112.88 1120.03 2115.44C1119.57 2115.12 1119.11 2114.8 1118.67 2114.48C1115.25 2111.95 1111.86 2109.31 1108.58 2106.56C1112.67 2104.09 1116.7 2101.54 1120.64 2098.84C1121.31 2099.36 1121.98 2099.88 1122.62 2100.43V2100.41ZM1109.19 2089C1112.64 2092.22 1116.21 2095.3 1119.86 2098.23C1115.92 2100.9 1111.95 2103.48 1107.86 2105.95C1104.26 2102.87 1100.78 2099.68 1097.48 2096.34C1101.45 2093.99 1105.34 2091.56 1109.16 2089H1109.19ZM1094.75 2098C1095.42 2097.62 1096.03 2097.21 1096.7 2096.84C1100 2100.2 1103.48 2103.42 1107.08 2106.47C1102.96 2108.94 1098.81 2111.23 1094.55 2113.46C1091.1 2110.27 1087.82 2106.96 1084.66 2103.48C1088.09 2101.71 1091.42 2099.88 1094.75 2098ZM1075.15 2114.07C1073.94 2112.68 1072.75 2111.26 1071.59 2109.81C1075.73 2107.95 1079.79 2105.98 1083.82 2103.92C1086.93 2107.4 1090.23 2110.74 1093.68 2113.9C1089.45 2116.1 1085.19 2118.22 1080.84 2120.19C1078.89 2118.22 1076.98 2116.19 1075.15 2114.07ZM1067.56 2126.81C1071.97 2125.1 1076.31 2123.24 1080.61 2121.27C1084.03 2124.69 1087.56 2127.91 1091.25 2131.02C1087.65 2132.67 1084 2134.33 1080.34 2135.81C1079.39 2136.18 1078.43 2136.56 1077.5 2136.94C1074.02 2133.72 1070.69 2130.35 1067.53 2126.81H1067.56ZM1078.26 2137.6C1082.9 2135.75 1087.51 2133.75 1092.03 2131.63C1093.83 2133.14 1095.62 2134.59 1097.48 2136.01C1099.57 2137.63 1101.71 2139.2 1103.86 2140.74C1099.16 2143 1094.43 2145.15 1089.65 2147.15C1085.74 2144.13 1081.91 2140.94 1078.26 2137.6ZM1085.16 2161.98C1081.59 2159.37 1078.11 2156.61 1074.69 2153.74C1079.68 2152.05 1084.58 2150.17 1089.45 2148.17C1093.54 2151.33 1097.74 2154.29 1102 2157.19C1100.64 2157.77 1099.28 2158.38 1097.91 2158.96C1094.26 2160.47 1090.58 2161.86 1086.87 2163.2C1086.29 2162.79 1085.71 2162.38 1085.16 2161.98ZM1083.68 2178.72C1081.36 2177.13 1079.07 2175.53 1076.81 2173.85C1074.78 2172.37 1072.81 2170.83 1070.83 2169.29C1076.17 2167.75 1081.45 2166.07 1086.69 2164.21C1091.04 2167.35 1095.45 2170.34 1099.97 2173.18C1094.58 2175.21 1089.19 2177.07 1083.68 2178.75V2178.72ZM1087.77 2163.81C1092.9 2161.98 1097.94 2159.98 1102.96 2157.8C1107.39 2160.76 1111.92 2163.57 1116.53 2166.24C1113.28 2167.72 1110 2169.17 1106.73 2170.51C1104.84 2171.29 1102.96 2172.02 1101.04 2172.77C1096.52 2169.93 1092.12 2166.91 1087.77 2163.81ZM1116.44 2181.68C1111.57 2179.07 1106.73 2176.28 1102.03 2173.35C1107.25 2171.35 1112.38 2169.12 1117.48 2166.8C1122.27 2169.55 1127.14 2172.16 1132.1 2174.63C1126.96 2177.15 1121.75 2179.53 1116.47 2181.71L1116.44 2181.68ZM1126.27 2170.6C1123.66 2169.2 1121.05 2167.78 1118.5 2166.3C1123.46 2164.01 1128.33 2161.51 1133.11 2158.93C1137.92 2161.49 1142.79 2163.92 1147.75 2166.19C1142.97 2168.94 1138.13 2171.61 1133.17 2174.05C1130.85 2172.92 1128.56 2171.79 1126.27 2170.57V2170.6ZM1149.81 2181.54C1144.5 2179.39 1139.29 2177.04 1134.13 2174.54C1138.62 2172.28 1143.08 2169.93 1147.46 2167.4C1147.9 2167.14 1148.33 2166.85 1148.74 2166.62C1153.87 2168.91 1159.03 2171.06 1164.28 2173.06C1159.55 2176.02 1154.71 2178.87 1149.81 2181.54ZM1173.67 2161.6C1175.32 2162.21 1176.98 2162.82 1178.63 2163.37C1174.28 2166.53 1169.84 2169.55 1165.29 2172.42C1160.04 2170.45 1154.85 2168.33 1149.72 2166.04C1154.33 2163.31 1158.88 2160.47 1163.35 2157.48C1166.77 2158.9 1170.19 2160.3 1173.67 2161.6ZM1163.26 2156.44C1158.36 2154.35 1153.49 2152.11 1148.71 2149.73C1153.06 2146.98 1157.35 2144.08 1161.49 2141.06C1166.22 2143.29 1171.03 2145.38 1175.87 2147.33C1171.76 2150.49 1167.55 2153.53 1163.26 2156.47V2156.44ZM1176.69 2146.66C1171.84 2144.71 1167.09 2142.62 1162.36 2140.42C1165.26 2138.3 1168.1 2136.15 1170.89 2133.92C1172.02 2133.02 1173.12 2132.12 1174.25 2131.19C1178.86 2133.28 1183.56 2135.23 1188.28 2137.02C1186.22 2138.88 1184.14 2140.68 1182.02 2142.45C1180.28 2143.9 1178.48 2145.29 1176.69 2146.69V2146.66Z" fill="#EAD6E6"/>
</g>
<g style="mix-blend-mode:multiply">
<path d="M1185.82 2174.69C1181.76 2180.78 1160.28 2185.6 1136.82 2186.79C1144.56 2182.9 1151.29 2176.98 1155.84 2169.61C1161.93 2159.77 1164.22 2147.96 1164.22 2136.39C1164.22 2124.84 1162.48 2112.94 1160.39 2101.57C1133.95 2097.65 1107.08 2096.75 1080.43 2098.9C1082.17 2094.8 1085.07 2091.53 1088.58 2088.86C1127.28 2086.13 1184.28 2087.2 1184.28 2087.2C1190.23 2108.09 1194.46 2161.8 1185.85 2174.74L1185.82 2174.69Z" fill="#EAD6E6"/>
</g>
<path d="M1069.3 2096.23C1060.49 2101.8 1058.89 2114.85 1066.89 2121.88C1070.69 2125.21 1075.85 2126.81 1080.87 2125.82C1086.2 2124.78 1090.61 2121.01 1093.57 2116.6C1097.74 2110.39 1098.93 2102.73 1100.06 2095.47C1100.32 2093.85 1098.03 2093.12 1097.54 2094.78C1093.71 2107.95 1100.55 2122.95 1113.4 2128.06C1126.39 2133.22 1141.87 2127.74 1148.07 2115.09C1151.41 2108.27 1152.04 2100.2 1149.41 2093.03C1148.83 2091.44 1146.65 2092.08 1146.88 2093.73C1148.59 2105.4 1153.99 2117.44 1165.55 2122.14C1170.6 2124.2 1176.17 2124.26 1181.15 2121.96C1185.7 2119.87 1189.47 2115.84 1190.6 2110.88C1192.23 2103.71 1188.66 2096.69 1185.36 2090.57C1184.54 2089.09 1182.28 2090.39 1183.09 2091.9C1185.7 2096.75 1188.57 2102.09 1188.37 2107.77C1188.2 2112.82 1185.12 2116.97 1180.75 2119.27C1171.41 2124.17 1160.71 2118.45 1155.38 2110.33C1151.99 2105.13 1150.28 2099.1 1149.38 2093.01L1146.85 2093.7C1151.14 2105.34 1146.07 2119.38 1134.76 2124.87C1123.46 2130.35 1108.96 2126.4 1102.58 2115.32C1099.13 2109.31 1098.09 2102.09 1100.06 2095.44L1097.54 2094.75C1096 2104.64 1094 2116.51 1084.35 2121.76C1076.11 2126.23 1064.83 2120.83 1064.25 2111.11C1063.96 2106.12 1066.4 2101.13 1070.63 2098.43C1072.05 2097.53 1070.75 2095.27 1069.3 2096.17V2096.23Z" fill="white"/>
<path d="M1184.51 2078.76C1145.29 2076.84 1106.09 2078.12 1067.1 2082.56C1056.11 2083.81 1056.31 2101.16 1067.41 2099.91C1106.44 2095.47 1145.64 2094.2 1184.83 2096.11C1195.97 2096.66 1195.62 2079.31 1184.51 2078.76Z" fill="#CA7C0D"/>
<g style="mix-blend-mode:soft-light" opacity="0.5">
<path d="M1074.37 2161.25C1076.87 2166.24 1080.78 2170.42 1086.4 2173.06C1090 2174.75 1094.29 2175.59 1098.17 2174.54C1103.25 2173.15 1106.55 2168.51 1106.18 2163.26C1105.6 2154.87 1100.12 2146.72 1093.36 2141.99C1087.8 2138.1 1077.76 2134.21 1072.6 2140.85C1071.47 2142.31 1071.01 2144.16 1070.92 2145.99C1070.72 2151.07 1072.11 2156.73 1074.37 2161.25Z" fill="white"/>
</g>
<path d="M927.148 2396.14L800.74 2338.05L791.057 2333.61L798.45 2316.4L804.451 2302.42L831.066 2240.35L861.364 2169.67L959.474 2207.76L999.832 2223.43L973.565 2285.85L963.214 2310.42L955.589 2328.53L927.148 2396.14Z" fill="#EDC30D"/>
<path d="M904.91 2335.7C897.546 2332.62 894.096 2329.75 894.473 2327.14L897.14 2309.03L876.99 2300.59L866.727 2314.78C865.132 2317.18 860.523 2316.81 852.927 2313.62C848.868 2311.9 845.968 2310.42 844.229 2309.15C842.489 2307.87 841.648 2307.09 841.764 2306.85L900.184 2230.4C900.474 2229.73 906.389 2231.82 917.957 2236.66C929.525 2241.51 935.178 2244.3 934.888 2244.96L920.769 2340.17C920.508 2340.75 918.392 2340.4 914.362 2339.12C910.332 2337.82 907.172 2336.71 904.91 2335.76V2335.7ZM886.935 2285.79L900.242 2291.39L905.548 2262.75L904.794 2262.43L886.935 2285.82V2285.79Z" fill="white"/>
<path d="M1041.26 2463.49L927.148 2396.14L950.661 2340.25L959.62 2318.96L969.014 2296.67L996.528 2231.24L999.833 2223.43L1102.7 2296.47L1083.24 2349.31L1062.75 2405.08L1054.45 2427.65L1046.92 2448.14L1041.26 2463.49Z" fill="#E3A411"/>
<path d="M791.057 2333.61L917.29 2409.37L1041.26 2463.49L927.148 2396.14L791.057 2333.61Z" fill="#B67D18"/>
<path d="M1061.01 2336.42C1056.51 2344.84 1049.5 2349.28 1039.87 2349.77C1043.06 2353.34 1045.03 2357.64 1045.81 2362.6C1046.6 2367.59 1045.23 2373.33 1041.78 2379.83C1038.31 2386.36 1033.17 2390.22 1026.33 2391.47C1019.49 2392.72 1011.57 2390.95 1002.62 2386.16L974 2370.9C972.637 2370.17 971.739 2369.1 971.362 2367.67C970.956 2366.28 971.188 2364.8 971.999 2363.26L1013.34 2285.59C1013.81 2284.69 1014.27 2284.19 1014.71 2284.05C1015.14 2283.9 1015.81 2284.08 1016.68 2284.57L1044.34 2299.31C1063.27 2309.41 1068.81 2321.77 1061.01 2336.42ZM1011.23 2345.71L1002.82 2361.49L1004.99 2362.65C1008.47 2364.51 1011.37 2365.21 1013.66 2364.77C1015.95 2364.34 1017.87 2362.71 1019.37 2359.87C1020.88 2357.03 1021.17 2354.65 1020.3 2352.73C1019.4 2350.79 1017.23 2348.9 1013.75 2347.04L1011.2 2345.68L1011.23 2345.71ZM1027.32 2315.47L1018.85 2331.38L1019.46 2331.69C1027.23 2335.84 1032.48 2335.32 1035.23 2330.13C1036.74 2327.28 1037.09 2324.85 1036.28 2322.73C1035.46 2320.64 1033.32 2318.67 1029.84 2316.81L1027.29 2315.45L1027.32 2315.47Z" fill="white"/>
<g style="mix-blend-mode:soft-light" opacity="0.5">
<path d="M973.565 2285.85L804.451 2302.42L831.066 2240.35L959.474 2207.76L999.832 2223.43L973.565 2285.85Z" fill="white"/>
<path d="M955.589 2328.53L800.74 2338.05L791.057 2333.61L798.45 2316.4L963.214 2310.42L955.589 2328.53Z" fill="white"/>
</g>
<g style="mix-blend-mode:soft-light" opacity="0.5">
<path d="M950.66 2340.25L1046.89 2448.14L1054.42 2427.65L959.619 2318.96L950.66 2340.25Z" fill="white"/>
</g>
<g style="mix-blend-mode:soft-light" opacity="0.5">
<path d="M1062.75 2405.05L969.014 2296.64L996.528 2231.21C1007.25 2245.54 1055.27 2310.98 1083.24 2349.28L1062.75 2405.02V2405.05Z" fill="white"/>
</g>
<path d="M1139.11 2534.63L1010.33 2587.33L1000.5 2591.33L992.99 2574.21L986.872 2560.25L959.793 2498.39L928.945 2427.94L1023.78 2382.3L1062.77 2363.52L1090.38 2425.36L1101.22 2449.7L1109.22 2467.66L1139.11 2534.63Z" fill="#84B693"/>
<path d="M1078.84 2508.84C1071.56 2512.09 1067.09 2512.7 1065.47 2510.61L1054.08 2496.28L1034.13 2505.21L1037.46 2522.42C1038.13 2525.23 1034.68 2528.34 1027.17 2531.7C1023.17 2533.5 1020.1 2534.61 1017.95 2535.01C1015.81 2535.42 1014.7 2535.51 1014.59 2535.24L998.759 2440.33C998.469 2439.66 1004.04 2436.76 1015.49 2431.63C1026.94 2426.49 1032.83 2424.26 1033.11 2424.92L1092.9 2500.31C1093.16 2500.89 1091.45 2502.22 1087.74 2504.28C1084.05 2506.34 1081.07 2507.88 1078.81 2508.9L1078.84 2508.84ZM1030.16 2487.86L1043.32 2481.94L1026.04 2458.5L1025.29 2458.84L1030.16 2487.86Z" fill="white"/>
<path d="M1265.43 2496.54L1138.33 2533.88L1113.66 2478.52L1104.23 2457.39L1094.38 2435.31L1065.47 2370.49L1062.02 2362.77L1185.62 2337.53L1210.87 2387.84L1237.51 2440.91L1248.33 2462.41L1258.13 2481.91L1265.43 2496.54Z" fill="#7FAA94"/>
<path d="M999.744 2590.58L1141.26 2550.13L1265.46 2496.54L1138.36 2533.88L999.744 2590.58Z" fill="#729494"/>
<path d="M1185.99 2395.12C1189.07 2404.15 1187.5 2412.33 1181.3 2419.7C1186.08 2419.81 1190.55 2421.29 1194.72 2424.14C1198.9 2426.98 1202.17 2431.89 1204.55 2438.88C1206.93 2445.87 1206.23 2452.28 1202.46 2458.12C1198.69 2463.95 1192 2468.5 1182.37 2471.81L1151.67 2482.29C1150.19 2482.78 1148.8 2482.69 1147.52 2482.03C1146.22 2481.36 1145.29 2480.2 1144.74 2478.54L1116.32 2395.24C1116.01 2394.28 1115.95 2393.61 1116.12 2393.21C1116.32 2392.8 1116.9 2392.42 1117.86 2392.1L1147.52 2381.98C1167.82 2375.04 1180.63 2379.42 1185.99 2395.15V2395.12ZM1147.69 2405.45L1153.49 2422.51L1154.13 2422.28C1162.45 2419.44 1165.67 2415.23 1163.79 2409.69C1162.74 2406.64 1161.21 2404.73 1159.12 2403.88C1157.03 2403.04 1154.13 2403.25 1150.42 2404.52L1147.69 2405.45ZM1158.74 2437.86L1164.51 2454.78L1166.86 2453.97C1170.6 2452.69 1173.09 2451.07 1174.34 2449.09C1175.59 2447.12 1175.7 2444.6 1174.69 2441.58C1173.64 2438.53 1172.14 2436.7 1170.11 2436.01C1168.08 2435.34 1165.21 2435.66 1161.5 2436.91L1158.77 2437.83L1158.74 2437.86Z" fill="white"/>
<g style="mix-blend-mode:soft-light" opacity="0.5">
<path d="M1089.59 2424.6L986.118 2559.47L959.039 2497.61L1023.03 2381.54L1062.02 2362.77L1089.59 2424.6Z" fill="white"/>
<path d="M1108.47 2466.91L1009.57 2586.55L999.745 2590.58L992.236 2573.46L1100.47 2448.95L1108.47 2466.91Z" fill="white"/>
</g>
<g style="mix-blend-mode:soft-light" opacity="0.5">
<path d="M1113.63 2478.52L1258.1 2481.91L1248.3 2462.41L1104.23 2457.39L1113.63 2478.52Z" fill="white"/>
</g>
<g style="mix-blend-mode:soft-light" opacity="0.5">
<path d="M1237.51 2440.91L1094.38 2435.31L1065.44 2370.49C1083.24 2372.43 1163.78 2382.07 1210.84 2387.81L1237.48 2440.88L1237.51 2440.91Z" fill="white"/>
</g>
<path d="M793.232 2389.32C819.122 2434.01 822.891 2485.42 807.989 2530.92C795.145 2570.09 768.414 2604.88 729.97 2627.2C722.49 2631.52 714.836 2635.24 707.037 2638.34C649.516 2661.35 584.921 2651.43 537.199 2614.95C519.513 2601.46 504.147 2584.34 492.289 2563.88C459.499 2507.24 462.166 2439.78 493.449 2387.29C508.09 2362.71 529.023 2341.39 555.522 2326.01C570.424 2317.36 586.08 2311.18 602.026 2307.35C671.753 2290.49 746.844 2318.43 787.839 2380.62C789.695 2383.43 791.492 2386.33 793.203 2389.32H793.232Z" fill="#DB4E19"/>
<path d="M729.159 2484.35L740.959 2517.37C709.038 2551.9 669.116 2578.97 625.221 2595.83C597.359 2606.51 567.526 2613.1 537.461 2615.39C519.775 2601.9 504.409 2584.78 492.551 2564.32C459.761 2507.68 462.428 2440.22 493.711 2387.73C535.199 2385.84 595.388 2394.89 630.874 2409.95C669.087 2426.17 703.182 2451.97 729.188 2484.38L729.159 2484.35Z" fill="#EDC30D"/>
<path d="M788.101 2381.05C785.462 2408.12 777.112 2436.01 766.617 2459.37C765.457 2461.92 764.298 2464.39 763.109 2466.82L730.84 2464.39C728.869 2459.25 726.752 2454.2 724.52 2449.18C698.746 2391.47 655.634 2341.62 602.316 2307.76C672.043 2290.9 747.134 2318.84 788.129 2381.02L788.101 2381.05Z" fill="#EDC30D"/>
<path d="M807.989 2530.92C795.145 2570.09 768.414 2604.88 729.97 2627.2C722.49 2631.52 714.836 2635.24 707.037 2638.34C712.865 2627.49 718.344 2616.43 723.244 2605.12C731.478 2586.05 738.001 2566.03 741.219 2545.55C742.292 2538.73 742.988 2531.82 743.307 2524.92C749.308 2515.95 757.571 2507.91 763.573 2498.95C769.806 2502.02 775.865 2505.56 781.751 2509.54C791.028 2515.75 799.842 2522.97 808.018 2530.92H807.989Z" fill="#EDC30D"/>
<path d="M781.054 2487.31C786.911 2514.56 774.038 2540.41 752.294 2545.08C730.578 2549.75 708.196 2531.47 702.34 2504.26C696.483 2477.01 709.356 2451.16 731.071 2446.48C752.816 2441.81 775.169 2460.09 781.025 2487.34L781.054 2487.31Z" fill="white"/>
<g style="mix-blend-mode:multiply">
<path d="M787.867 2380.62C768.79 2351.66 742.32 2330.16 712.429 2317.1C715.966 2321.48 719.358 2326.07 722.518 2330.85C724.374 2333.67 726.171 2336.57 727.882 2339.56C753.772 2384.24 757.541 2435.66 742.639 2481.16C729.795 2520.33 703.064 2555.12 664.62 2577.43C657.14 2581.76 649.486 2585.47 641.687 2588.58C597.56 2606.22 549.317 2604.48 507.684 2586.28C516.468 2597.14 526.384 2606.74 537.169 2614.95C584.891 2651.43 649.457 2661.32 707.007 2638.34C714.806 2635.24 722.46 2631.52 729.94 2627.2C768.384 2604.88 795.116 2570.09 807.959 2530.92C822.861 2485.42 819.063 2434.01 793.202 2389.32C791.491 2386.36 789.694 2383.46 787.838 2380.62H787.867Z" fill="#F5DEDC"/>
</g>
<g style="mix-blend-mode:soft-light" opacity="0.5">
<path d="M584.978 2466.77C586.543 2507.82 564.944 2542.01 536.705 2543.08C508.466 2544.15 484.316 2511.74 482.75 2470.68C481.184 2429.62 502.784 2395.44 531.022 2394.37C559.261 2393.3 583.412 2425.71 584.978 2466.77Z" fill="white"/>
</g>
</g>
</svg>
