<svg width="1170" height="2532" viewBox="0 0 1170 2532" fill="none" xmlns="http://www.w3.org/2000/svg">
<rect width="1170" height="2532" rx="65" fill="#F4ECE0"/>
<mask id="mask0_4202_733" style="mask-type:alpha" maskUnits="userSpaceOnUse" x="0" y="0" width="1170" height="2532">
<rect width="1170" height="2532" rx="65" fill="#F4ECE0"/>
</mask>
<g mask="url(#mask0_4202_733)">
<path d="M1325.28 1192.44C434.72 659.605 264.869 26.4703 291.262 -223.492C-226.676 -473.144 -138.8 -296.462 -30.1196 -176.915C-162.088 172.411 -346.845 1011.73 -30.1196 1574.37C286.606 2137.02 1005.45 2190.74 1325.28 2147.27C1696.34 2051.01 2215.83 1725.28 1325.28 1192.44Z" fill="#ECE2D4"/>
<path d="M1301.03 1104.44C410.037 571.605 240.101 -61.5297 266.508 -311.492C-251.687 -561.144 -163.767 -384.462 -55.0331 -264.915C-187.067 84.411 -371.915 923.726 -55.0331 1486.37C261.849 2049.02 981.046 2102.74 1301.03 2059.27C1672.28 1963.01 2192.03 1637.28 1301.03 1104.44Z" fill="#FCF7F0"/>
<path d="M1548.62 408.411C2382.42 -180.238 3034.84 -134.798 3314.02 -19.3512C3353.04 -3.2144 3398.96 -7.14455 3430.62 -35.0889C3778.49 -342.147 3667.74 -371.772 3529.37 -339.26C3492.78 -330.664 3453.99 -338.931 3426.44 -364.5C3115.69 -652.945 2414.51 -1141.93 1761.61 -1079.18C1075.73 -1013.25 712.703 -335.04 616.922 -4.17584C550.511 399.491 643.874 1047.14 1548.62 408.411Z" fill="#EEB7B5"/>
<path d="M1611.93 355.848C2445.73 -232.8 3098.16 -187.36 3377.33 -71.9137C3416.35 -55.7768 3462.28 -59.7071 3493.93 -87.6514C3841.8 -394.709 3731.05 -424.335 3592.68 -391.823C3556.09 -383.226 3517.3 -391.493 3489.75 -417.063C3179 -705.507 2477.82 -1194.49 1824.92 -1131.74C1139.04 -1065.81 776.014 -387.602 680.233 -56.7383C613.821 346.929 707.184 994.581 1611.93 355.848Z" fill="#F2CAC9"/>
<path d="M649.184 2252.64C-115.616 1795.04 -261.482 1251.31 -238.816 1036.64C-683.615 822.243 -608.148 973.976 -514.815 1076.64C-628.148 1376.64 -786.815 2097.44 -514.815 2580.64C-242.815 3063.84 374.518 3109.98 649.184 3072.64C967.851 2989.98 1413.98 2710.24 649.184 2252.64Z" fill="#CBE6E2"/>
<path d="M559.184 2238.64C-205.616 1781.04 -351.482 1237.31 -328.816 1022.64C-773.615 808.243 -698.148 959.976 -604.815 1062.64C-718.148 1362.64 -876.815 2083.44 -604.815 2566.64C-332.815 3049.84 284.518 3095.98 559.184 3058.64C877.851 2975.98 1323.98 2696.24 559.184 2238.64Z" fill="#E3F2F0"/>
</g>
</svg>
