<svg width="1178" height="2540" viewBox="0 0 1178 2540" fill="none" xmlns="http://www.w3.org/2000/svg">
<path d="M1104 0H74C35.3401 0 4 31.3401 4 70V2462C4 2500.66 35.3401 2532 74 2532H1104C1142.66 2532 1174 2500.66 1174 2462V70C1174 31.3401 1142.66 0 1104 0Z" fill="#FCF7F0"/>
<mask id="mask0_6937_10197" style="mask-type:alpha" maskUnits="userSpaceOnUse" x="4" y="0" width="1170" height="2532">
<path d="M1104 0H74C35.3401 0 4 31.3401 4 70V2462C4 2500.66 35.3401 2532 74 2532H1104C1142.66 2532 1174 2500.66 1174 2462V70C1174 31.3401 1142.66 0 1104 0Z" fill="#FCF7F0"/>
</mask>
<g mask="url(#mask0_6937_10197)">
<g opacity="0.6">
<path d="M-594.05 1051.51C-442.336 1115.78 -246.704 1044.2 -172.328 897.139C-146.716 846.468 -133.935 788.884 -99.7821 743.619C29.7858 572.008 350.424 691.01 487.037 524.807C517.455 487.769 534.121 440.491 566.764 405.397C673.444 290.854 875.173 364.816 1011.41 287.963C1109.13 232.841 1149.96 95.7093 1098.29 -3.89699C619.035 -31.7793 146.356 -19.7285 -330.528 35.074C-379.02 40.6282 -431.924 48.7721 -464.897 84.885C-489.517 111.763 -498.159 149.33 -505.327 185.103C-558.503 450.172 -599.961 781.246 -594.043 1051.61L-594.05 1051.51Z" fill="#ECD1AB" fill-opacity="0.5"/>
<path d="M133.318 614.798L34.9784 529.818C14.9084 531.628 -4.43164 540.778 -18.5616 555.148C-32.6917 569.518 -41.5116 589.008 -42.9816 609.108C-44.2216 626.038 -40.4316 642.888 -39.1216 659.818C-37.8116 676.748 -39.3916 694.998 -49.7616 708.438C-52.7316 712.288 -56.4316 715.778 -57.9016 720.408C-60.8316 729.578 -53.3016 739.498 -44.1516 742.508C-35.0016 745.518 -25.0216 743.418 -15.7516 740.818C21.3984 730.378 56.2884 711.958 85.8584 687.168C108.458 668.218 128.748 643.928 133.318 614.798Z" fill="#8AD3E3"/>
<g style="mix-blend-mode:soft-light" opacity="0.5">
<path d="M120.668 602.539L48.338 540.039C33.578 541.369 19.358 548.099 8.96802 558.669C-1.42198 569.239 -7.91194 583.569 -8.99194 598.349C-9.90195 610.799 -7.12198 623.199 -6.15198 635.649C-5.18198 648.099 -6.35192 661.519 -13.9719 671.409C-16.1519 674.239 -18.8719 676.809 -19.9619 680.209C-22.1119 686.959 -16.5819 694.249 -9.85193 696.459C-3.12193 698.669 4.21809 697.129 11.0381 695.209C38.3581 687.539 64.0181 673.989 85.7681 655.749C102.388 641.819 117.318 623.949 120.668 602.519V602.539Z" fill="white"/>
</g>
<path d="M110.499 453.481C110.499 453.481 85.6387 406.701 18.3387 413.461C-29.8013 418.311 -53.7014 455.051 -71.3314 475.851C-81.0114 487.261 -97.9413 489.041 -109.631 479.691C-118.071 472.981 -121.791 461.971 -119.181 451.481C-118.811 449.971 -118.391 448.361 -117.961 446.681C-108.541 410.451 -86.2813 339.411 -49.9113 307.341C-10.3213 272.411 38.3687 244.791 115.389 272.571C134.319 279.391 154.989 289.551 177.639 303.811L110.499 453.491V453.481Z" fill="#EEC067"/>
<g style="mix-blend-mode:multiply">
<path d="M110.499 453.482C110.499 453.482 85.6389 406.702 18.3389 413.462C-29.8011 418.312 -53.7012 455.052 -71.3312 475.852C-81.0112 487.262 -97.9411 489.042 -109.631 479.692C-118.071 472.982 -121.791 461.972 -119.181 451.482C-118.811 449.972 -118.391 448.362 -117.961 446.682C-108.981 454.012 -94.6911 453.972 -83.6711 449.012C-70.9511 443.242 -61.2611 432.572 -50.6611 423.422C-21.5911 398.272 16.5189 383.832 54.9789 383.312C67.6789 342.942 88.3789 305.112 115.379 272.562C134.309 279.382 154.979 289.542 177.629 303.802L110.489 453.482H110.499Z" fill="#DBBACF"/>
</g>
<path d="M214.136 774.339C203.736 777.289 192.616 773.919 185.636 765.699C175.916 754.319 177.156 737.339 188.246 727.298C208.466 709.018 244.436 683.959 247.746 635.689C248.946 617.989 246.576 603.309 242.396 591.309C230.676 557.568 204.806 544.848 204.806 544.848L352.266 472.979C364.456 491.099 373.936 507.949 381.036 523.689C418.036 605.799 391.136 658.009 355.986 700.519C323.656 739.599 248.196 764.638 214.126 774.348L214.136 774.339Z" fill="#EEC067"/>
<g style="mix-blend-mode:multiply">
<path d="M381.057 523.678C338.067 552.158 291.347 574.979 242.417 591.309C230.697 557.568 204.827 544.848 204.827 544.848L352.287 472.979C364.477 491.099 373.957 507.949 381.057 523.689V523.678Z" fill="#DBBACF"/>
</g>
<path d="M512.366 383.4C348.696 549.12 156.656 601.03 156.656 601.03L55.8757 503.41C55.8757 503.41 101.636 309.82 262.066 140.95C307.366 93.28 355.846 59.65 402.576 36.4C521.276 -22.72 628.526 -14.96 642.526 -1.39997C656.526 12.16 667.696 119.1 612.396 239.63C590.646 287.08 558.576 336.61 512.376 383.4H512.366Z" fill="#E3707F"/>
<path d="M278.627 371.579C232.495 325.447 232.495 250.651 278.627 204.518C324.76 158.386 399.556 158.386 445.688 204.518C491.821 250.651 491.821 325.447 445.688 371.579C399.556 417.712 324.76 417.712 278.627 371.579Z" fill="#413E54"/>
<path d="M301.728 348.478C268.353 315.104 268.353 260.994 301.728 227.619C335.102 194.245 389.212 194.245 422.586 227.619C455.96 260.994 455.96 315.104 422.586 348.478C389.212 381.852 335.102 381.852 301.728 348.478Z" fill="#FEFCF5"/>
<path d="M421.606 226.66C403.336 208.96 379.196 201.07 355.676 202.85C370.916 206.05 385.466 213.43 397.486 225.07C431.386 257.91 432.246 312.01 399.406 345.91C384.266 361.54 364.606 370.13 344.496 371.65C372.266 377.49 402.326 369.39 423.526 347.5C456.366 313.6 455.506 259.5 421.596 226.66H421.606Z" fill="#E1E6F4"/>
<path d="M612.386 239.63C572.136 222.84 529.216 194.43 489.806 156.26C450.396 118.09 420.626 76.1 402.566 36.4C521.276 -22.72 628.526 -14.96 642.526 -1.39997C656.526 12.16 667.696 119.1 612.396 239.63H612.386Z" fill="#EEC067"/>
<path d="M504.965 140.609C467.855 104.669 439.305 65.3395 421.025 27.7295C414.915 30.4595 408.765 33.3095 402.575 36.3995C420.635 76.0995 450.405 118.089 489.815 156.259C529.225 194.429 572.145 222.85 612.395 239.63C615.275 233.35 617.935 227.109 620.465 220.91C582.295 203.829 542.075 176.549 504.965 140.6V140.609Z" fill="white"/>
<g style="mix-blend-mode:multiply">
<path d="M612.385 239.63C667.695 119.1 656.515 12.1596 642.515 -1.40039C637.525 -6.23039 620.675 -10.3004 595.735 -10.9004C598.255 34.1396 590.225 106.07 554.615 183.67C532.865 231.12 500.795 280.65 454.595 327.44C290.915 493.16 98.8848 545.07 98.8848 545.07L156.655 601.03C156.655 601.03 348.685 549.12 512.365 383.4C558.565 336.6 590.635 287.08 612.385 239.63Z" fill="#F5DEDC"/>
</g>
<path d="M156.66 601.028L106.27 552.218L55.8801 503.408L23.4701 525.088L79.7401 579.598L136.02 634.108L156.66 601.028Z" fill="#413E54"/>
<g style="mix-blend-mode:soft-light" opacity="0.5">
<path d="M492.976 167.7C444.996 196.85 391.296 196.12 373.036 166.06C354.776 136.01 378.876 88.0104 426.856 58.8604C474.836 29.7104 528.536 30.4404 546.796 60.5004C565.056 90.5504 540.956 138.55 492.976 167.7Z" fill="white"/>
</g>
<path d="M264.955 388.391L230.055 354.591L39.5255 582.541C28.5855 595.631 27.8855 613.091 37.9055 622.801C47.9255 632.511 65.3555 631.251 78.0854 619.891L299.855 422.191L264.955 388.391Z" fill="#EEC067"/>
<g style="mix-blend-mode:multiply">
<path d="M37.9082 622.791C41.4282 626.201 45.8781 628.231 50.6981 628.971C47.8581 619.571 50.4182 607.971 58.2482 598.601L247.828 371.791L230.068 354.591L39.5382 582.541C28.5982 595.631 27.8981 613.091 37.9181 622.801L37.9082 622.791Z" fill="#DBBACF"/>
</g>
</g>
<g opacity="0.6">
<path d="M559.361 2638.99C525.5 2622.39 444.529 2599.01 458.633 2498.68C463.169 2466.53 504.46 2417.55 534.606 2405.45C650.884 2358.7 623.17 2319.38 572.806 2234.56C533.653 2144.13 552.49 1984.68 641.646 1936.88C699.242 1906.02 802.37 1951.19 862.892 1926.56C928.182 1900 934.724 1825.05 997.679 1793.35C1186.58 1698.25 1462.4 1785.14 1470.98 1999.31C1486.62 2389.8 1792.75 2240.75 1579.66 2644.31L559.361 2638.99Z" fill="#F1BEC6"/>
<path d="M616.988 2518.73L615.147 2517.81C614.424 2517.45 597.395 2508.94 593.056 2496.05C590.952 2489.84 590.261 2483.53 591.083 2478.27C591.971 2472.61 594.535 2468.77 598.348 2467.48C605.844 2464.95 615.279 2473.53 619.816 2486.98C624.122 2499.77 618.007 2516.07 617.744 2516.76L617.021 2518.67L616.988 2518.73ZM597.822 2472.09C596.31 2473.43 595.258 2475.8 594.765 2478.89C594.042 2483.56 594.699 2489.21 596.606 2494.9C599.663 2503.97 610.512 2510.94 614.95 2513.47C616.397 2508.87 619.355 2497.3 616.298 2488.26L618.073 2487.67L616.298 2488.26C612.55 2477.15 604.89 2469.29 599.532 2471.1C598.907 2471.3 598.348 2471.66 597.822 2472.12V2472.09Z" fill="#F6F8FF"/>
<path d="M627.472 2540.57L625.664 2541.49C624.941 2541.85 607.945 2550.43 595.025 2546.22C581.514 2541.82 572.835 2532.48 575.267 2524.95C576.517 2521.14 580.297 2518.54 585.952 2517.59C591.179 2516.7 597.491 2517.36 603.737 2519.36C616.558 2523.54 625.993 2538.2 626.388 2538.82L627.472 2540.57ZM580.33 2523.87C579.607 2524.52 579.081 2525.28 578.818 2526.1C577.076 2531.46 585.031 2539.05 596.176 2542.67C605.282 2545.63 617.347 2541.09 622.015 2539.05C619.155 2535.14 611.66 2525.87 602.586 2522.91C596.899 2521.07 591.212 2520.48 586.576 2521.27C583.881 2521.73 581.744 2522.62 580.363 2523.87H580.33Z" fill="#F6F8FF"/>
<path d="M643.911 2530.9C636.12 2537.9 625.929 2541.42 625.37 2541.58L623.43 2542.24L622.97 2540.24C622.773 2539.45 618.499 2520.91 625.633 2509.33C629.085 2503.75 633.49 2499.18 638.06 2496.48C642.991 2493.55 647.56 2493.09 650.979 2495.2C654.398 2497.3 656.042 2501.61 655.615 2507.33C655.22 2512.62 653.116 2518.6 649.664 2524.19C648.119 2526.69 646.114 2528.93 643.944 2530.9H643.911ZM626.192 2537.28C630.663 2535.44 641.479 2530.34 646.476 2522.22C649.632 2517.13 651.538 2511.73 651.867 2507.03C652.163 2502.83 651.111 2499.67 649.007 2498.35C646.87 2497.04 643.583 2497.53 639.966 2499.67C635.923 2502.07 631.945 2506.21 628.822 2511.31C623.792 2519.46 625.337 2532.28 626.225 2537.28H626.192Z" fill="#F6F8FF"/>
<path d="M650.647 2576.46L646.242 2579.22L646.143 2579.13C646.143 2579.13 645.847 2579.26 645.683 2579.32L644.17 2580.01L643.283 2578.6C641.113 2575.15 639.108 2571.83 637.267 2568.74C614.254 2530.24 610.178 2512.36 610.014 2511.6L609.619 2509.79L616.852 2508.21L617.213 2510.06C617.312 2510.48 621.553 2528.27 644.236 2566.07C645.979 2568.97 647.787 2571.93 649.628 2574.85L650.614 2576.43L650.647 2576.46Z" fill="#F6F8FF"/>
<path d="M838.199 2542.57C838.199 2507.49 809.763 2479.09 774.718 2479.09C746.841 2479.09 723.171 2497.04 714.623 2521.99C710.974 2519.78 706.701 2518.5 702.131 2518.5C688.85 2518.5 678.067 2529.29 678.067 2542.57C678.067 2544.61 678.33 2546.61 678.79 2548.48C676.324 2548.12 673.76 2547.93 671.196 2547.93C643.055 2547.93 620.24 2570.74 620.24 2598.88C620.24 2627.02 642.332 2647.24 670.473 2647.24C682.308 2647.24 790.005 2642.54 790.005 2642.54C790.005 2642.54 838.199 2569.82 838.199 2542.57Z" fill="#57B0A0"/>
<path d="M653.674 2168.81C665.443 2179.23 668.698 2200.04 668.698 2200.04C668.698 2200.04 645.751 2201.49 633.982 2191.04C622.213 2180.61 617.052 2167.17 622.509 2161.02C627.933 2154.87 641.905 2158.36 653.674 2168.78V2168.81Z" fill="#57B0A0"/>
<path d="M658.212 2213.03C673.597 2209.81 692.237 2219.61 692.237 2219.61C692.237 2219.61 679.679 2238.87 664.294 2242.09C648.908 2245.31 635.068 2241.43 633.359 2233.38C631.649 2225.33 642.794 2216.22 658.179 2213L658.212 2213.03Z" fill="#57B0A0"/>
<path d="M732.638 2243.37C735.202 2244.36 736.878 2245.18 737.339 2245.38C737.404 2245.38 737.437 2245.41 737.437 2245.44V2245.51C737.273 2245.71 736.846 2246.33 736.221 2247.25C732.769 2252.18 722.381 2265.56 709.954 2268.42C694.635 2271.94 680.696 2268.29 678.888 2260.3C677.047 2252.31 687.994 2242.98 703.313 2239.46C710.184 2237.88 717.745 2238.9 723.992 2240.54C727.378 2241.4 730.369 2242.45 732.671 2243.34L732.638 2243.37Z" fill="#57B0A0"/>
<path d="M706.699 2188.14C706.173 2203.86 692.234 2219.64 692.234 2219.64C692.234 2219.64 676.487 2202.87 677.013 2187.16C677.539 2171.44 684.607 2158.92 692.793 2159.18C700.979 2159.44 707.225 2172.4 706.699 2188.14Z" fill="#57B0A0"/>
<path d="M747.402 2214.08C748.52 2229.76 736.29 2246.92 736.29 2246.92C736.29 2246.92 718.9 2231.9 717.749 2216.22C716.631 2200.54 722.351 2187.32 730.537 2186.76C738.723 2186.17 746.251 2198.43 747.402 2214.11V2214.08Z" fill="#57B0A0"/>
<path d="M664.684 2194.42C664.849 2194.59 679.938 2210.92 727.508 2237.52C730.993 2239.46 734.642 2241.47 738.488 2243.54L738.356 2243.77L737.436 2245.48V2245.54C737.272 2245.74 736.844 2246.36 736.22 2247.28C731.913 2244.98 727.837 2242.75 723.99 2240.58C676.782 2214.08 662.087 2198.1 661.43 2197.38L664.717 2194.42H664.684Z" fill="#57B0A0"/>
<path d="M669.002 2362.97C680.639 2356.56 698.129 2359.88 698.129 2359.88C698.129 2359.88 692.737 2378.56 681.1 2384.97C669.462 2391.38 657.298 2391.67 653.945 2385.59C650.592 2379.51 657.331 2369.38 668.969 2362.97H669.002Z" fill="#57B0A0"/>
<path d="M705.493 2371.92C707.301 2358.73 720.418 2346.7 720.418 2346.7C720.418 2346.7 732.187 2362.15 730.379 2375.34C728.571 2388.52 721.536 2398.41 714.665 2397.49C707.794 2396.54 703.685 2385.1 705.493 2371.95V2371.92Z" fill="#57B0A0"/>
<path d="M750.791 2321.29C752.304 2319.55 753.421 2318.43 753.717 2318.13C753.75 2318.1 753.783 2318.07 753.783 2318.07V2318.13C753.947 2318.3 754.342 2318.79 754.901 2319.58C757.859 2323.75 765.552 2335.79 764.303 2346.54C762.758 2359.75 755.887 2369.78 749.016 2368.99C742.113 2368.17 737.806 2356.83 739.351 2343.61C740.041 2337.69 743 2331.97 746.09 2327.44C747.734 2325 749.411 2322.9 750.791 2321.32V2321.29Z" fill="#57B0A0"/>
<path d="M699.442 2326.22C711.803 2331.08 720.416 2346.7 720.416 2346.7C720.416 2346.7 702.598 2354.49 690.237 2349.59C677.876 2344.72 669.887 2335.52 672.452 2329.08C674.983 2322.63 687.081 2321.35 699.442 2326.22Z" fill="#57B0A0"/>
<path d="M731.66 2301.2C744.482 2304.75 754.673 2319.38 754.673 2319.38C754.673 2319.38 737.775 2328.98 724.954 2325.4C712.133 2321.85 703.257 2313.53 705.131 2306.85C706.972 2300.18 718.872 2297.65 731.693 2301.2H731.66Z" fill="#57B0A0"/>
<path d="M692.51 2361.46C692.707 2361.39 709.999 2354 744.649 2323.69C747.18 2321.45 749.81 2319.12 752.539 2316.65L752.703 2316.81L753.821 2318.03V2318.1C753.985 2318.26 754.38 2318.75 754.939 2319.54C751.881 2322.3 748.956 2324.93 746.128 2327.37C711.61 2357.42 694.712 2364.58 693.956 2364.91L692.543 2361.46H692.51Z" fill="#57B0A0"/>
<path d="M1193.44 1869.16C1181.51 1869.16 1171.81 1859.46 1171.81 1847.53C1171.81 1835.6 1181.51 1825.9 1193.44 1825.9C1205.38 1825.9 1215.08 1835.6 1215.08 1847.53C1215.08 1859.46 1205.38 1869.16 1193.44 1869.16ZM1193.44 1830.4C1183.98 1830.4 1176.32 1838.09 1176.32 1847.53C1176.32 1856.96 1184.01 1864.66 1193.44 1864.66C1202.88 1864.66 1210.57 1856.96 1210.57 1847.53C1210.57 1838.09 1202.88 1830.4 1193.44 1830.4Z" fill="#F6F8FF"/>
<path d="M629.776 2428.88C617.843 2428.88 608.145 2419.19 608.145 2407.25C608.145 2395.32 617.843 2385.62 629.776 2385.62C641.71 2385.62 651.408 2395.32 651.408 2407.25C651.408 2419.19 641.71 2428.88 629.776 2428.88ZM629.776 2390.12C620.308 2390.12 612.648 2397.82 612.648 2407.25C612.648 2416.69 620.341 2424.38 629.776 2424.38C639.211 2424.38 646.904 2416.69 646.904 2407.25C646.904 2397.82 639.211 2390.12 629.776 2390.12Z" fill="#F6F8FF"/>
<path d="M691.415 2456.66C691.604 2449.49 685.946 2443.53 678.777 2443.34C671.607 2443.15 665.642 2448.81 665.454 2455.98C665.265 2463.15 670.923 2469.11 678.092 2469.3C685.262 2469.49 691.226 2463.83 691.415 2456.66Z" fill="#F6F8FF"/>
<path d="M1160.18 1805.61C1160.18 1812.78 1154.36 1818.6 1147.19 1818.6C1140.03 1818.6 1134.21 1812.78 1134.21 1805.61C1134.21 1798.45 1140.03 1792.63 1147.19 1792.63C1154.36 1792.63 1160.18 1798.45 1160.18 1805.61Z" fill="#F6F8FF"/>
<path d="M836.556 1896.78H1189.56C1246.04 1896.78 1291.9 1942.64 1291.9 1999.11V2536.85C1291.9 2593.32 1246.04 2639.18 1189.56 2639.18H836.556C780.077 2639.18 734.25 2593.32 734.25 2536.88V1999.08C734.25 1942.6 780.11 1896.74 836.589 1896.74L836.556 1896.78Z" fill="#DDD2F3"/>
<path d="M825.456 1939.94L681.697 1995.76L734.541 2131.85L878.3 2076.04L825.456 1939.94Z" fill="#E0A1B4"/>
<path d="M774.127 1959.73V2116.11L783.069 2113.38V1956.24L774.127 1959.73Z" fill="#DA8FA6"/>
<path d="M1262.15 2607.03H879.822L790.666 2543.02V1916.76H1262.15V2607.03Z" fill="#B8A3E2"/>
<path d="M1254.99 2601.38H872.689L783.533 2537.93V1916.83H1254.99V2601.38Z" fill="white"/>
<path d="M872.692 2601.67L783.568 2537.93L842.71 2525.96L872.692 2601.67Z" fill="#CED6F8"/>
<path d="M1157.94 1899.74V1934.09C1157.94 1937.64 1155.05 1940.53 1151.5 1940.53H889.092C885.541 1940.53 882.648 1937.64 882.648 1934.09V1899.74C882.648 1885.01 894.582 1873.08 909.31 1873.08H1131.28C1138.15 1873.08 1144.4 1875.67 1149.13 1879.95C1154.52 1884.81 1157.94 1891.88 1157.94 1899.74Z" fill="#E7B668"/>
<path d="M1076.91 1882.28H963.688C963.688 1879.12 963.95 1876.06 964.444 1873.07C968.849 1846.18 992.19 1825.7 1020.3 1825.7C1048.41 1825.7 1071.75 1846.21 1076.15 1873.07C1076.64 1876.06 1076.91 1879.15 1076.91 1882.28Z" fill="#E7B668"/>
<path d="M1149.17 1879.91L882.684 1927.61V1899.7C882.684 1884.97 894.617 1873.04 909.345 1873.04H964.476C968.881 1846.15 992.222 1825.67 1020.33 1825.67C1048.44 1825.67 1071.78 1846.18 1076.18 1873.04H1131.31C1138.19 1873.04 1144.43 1875.64 1149.17 1879.91Z" fill="#EDC483"/>
<path d="M1037.23 1856.18C1037.23 1865.51 1029.64 1873.11 1020.3 1873.11C1010.96 1873.11 1003.37 1865.51 1003.37 1856.18C1003.37 1846.84 1010.96 1839.25 1020.3 1839.25C1029.64 1839.25 1037.23 1846.84 1037.23 1856.18Z" fill="#E3E7FD"/>
<path d="M895.499 2115.98H815.679C813.148 2115.98 811.109 2113.94 811.109 2111.41V2031.59C811.109 2029.06 813.148 2027.02 815.679 2027.02H895.499C898.03 2027.02 900.068 2029.06 900.068 2031.59V2111.41C900.068 2113.94 898.03 2115.98 895.499 2115.98ZM820.249 2106.84H890.929V2036.16H820.249V2106.84Z" fill="#92D9E9"/>
<path d="M847.502 2110.42L804.732 2060.85L819.921 2047.73L847.667 2079.92L904.178 2015.61L919.235 2028.86L847.502 2110.42Z" fill="#C52A52"/>
<path d="M1121.48 2033H937.35V2049.41H1121.48V2033Z" fill="#92D9E9"/>
<path d="M1233.26 2033H1134.07V2049.41H1233.26V2033Z" fill="#92D9E9"/>
<path d="M1043.01 2065.62H937.35V2082.02H1043.01V2065.62Z" fill="#92D9E9"/>
<path d="M1169.02 2098.26H937.35V2114.66H1169.02V2098.26Z" fill="#92D9E9"/>
<path d="M1233.26 2065.62H1054.88V2082.02H1233.26V2065.62Z" fill="#92D9E9"/>
<path d="M895.499 2298.05H815.679C813.148 2298.05 811.109 2296.01 811.109 2293.48V2213.66C811.109 2211.13 813.148 2209.09 815.679 2209.09H895.499C898.03 2209.09 900.068 2211.13 900.068 2213.66V2293.48C900.068 2296.01 898.03 2298.05 895.499 2298.05ZM820.249 2288.91H890.929V2218.23H820.249V2288.91Z" fill="#92D9E9"/>
<path d="M847.502 2292.49L804.732 2242.88L819.921 2229.8L847.667 2261.98L904.178 2197.68L919.235 2210.93L847.502 2292.49Z" fill="#C52A52"/>
<path d="M1196.11 2212.77H937.35V2229.17H1196.11V2212.77Z" fill="#92D9E9"/>
<path d="M1100.8 2245.38H937.35V2261.79H1100.8V2245.38Z" fill="#92D9E9"/>
<path d="M1001.69 2277.99H937.35V2294.39H1001.69V2277.99Z" fill="#92D9E9"/>
<path d="M1231.94 2277.99H1012.14V2294.39H1231.94V2277.99Z" fill="#92D9E9"/>
<path d="M1231.94 2245.38H1114.08V2261.79H1231.94V2245.38Z" fill="#92D9E9"/>
<path d="M895.499 2479.28H815.679C813.148 2479.28 811.109 2477.24 811.109 2474.71V2394.89C811.109 2392.36 813.148 2390.32 815.679 2390.32H895.499C898.03 2390.32 900.068 2392.36 900.068 2394.89V2474.71C900.068 2477.24 898.03 2479.28 895.499 2479.28ZM820.249 2470.14H890.929V2399.46H820.249V2470.14Z" fill="#92D9E9"/>
<path d="M847.502 2473.72L804.732 2424.15L819.921 2411.06L847.667 2443.21L904.178 2378.94L919.235 2392.16L847.502 2473.72Z" fill="#C52A52"/>
<path d="M1016.74 2393.31H937.35V2409.71H1016.74V2393.31Z" fill="#92D9E9"/>
<path d="M1231.15 2393.31H1025.52V2409.71H1231.15V2393.31Z" fill="#92D9E9"/>
<path d="M1152.02 2425.92H937.35V2442.33H1152.02V2425.92Z" fill="#92D9E9"/>
<path d="M1073.85 2458.53H937.35V2474.94H1073.85V2458.53Z" fill="#92D9E9"/>
<path d="M1188.91 2458.53H1082.98V2474.94H1188.91V2458.53Z" fill="#92D9E9"/>
<path d="M1231.9 2425.92H1164.31V2442.33H1231.9V2425.92Z" fill="#92D9E9"/>
<path d="M1360.12 1796.07L1110.71 2145.09L1168.56 2186.44L1417.97 1837.41L1360.12 1796.07Z" fill="#E3707F"/>
<path d="M1145.22 2157.9C1129.24 2146.46 1113.83 2140.7 1110.74 2144.98V2145.04H1110.7C1110.41 2145.5 1110.28 2146.03 1110.24 2146.62L1092.49 2204.74L1079.83 2246.17C1079.41 2247.58 1080.98 2248.7 1082.2 2247.88L1117.31 2222.89L1167.18 2187.39C1167.74 2187.16 1168.17 2186.86 1168.5 2186.43V2186.33C1171.62 2182.03 1161.17 2169.31 1145.19 2157.86L1145.22 2157.9Z" fill="#E6C6B7"/>
<path d="M1105.74 2211.81C1110.7 2215.36 1114.71 2219.28 1117.31 2222.89L1082.2 2247.88C1081.02 2248.73 1079.4 2247.58 1079.83 2246.17L1092.49 2204.75C1096.53 2206.13 1101.17 2208.53 1105.74 2211.81Z" fill="#E3707F"/>
</g>
</g>
</svg>
